<?xml version="1.0" encoding="UTF-8" standalone="no"?>
<!-- Created with Inkscape (http://www.inkscape.org/) -->

<svg
   width="512"
   height="512"
   viewBox="0 0 512 512"
   version="1.1"
   id="svg5"
   xml:space="preserve"
   inkscape:export-filename="icon.svg"
   inkscape:export-xdpi="96"
   inkscape:export-ydpi="96"
   xmlns:inkscape="http://www.inkscape.org/namespaces/inkscape"
   xmlns:sodipodi="http://sodipodi.sourceforge.net/DTD/sodipodi-0.dtd"
   xmlns="http://www.w3.org/2000/svg"
   xmlns:svg="http://www.w3.org/2000/svg"><sodipodi:namedview
     id="namedview7"
     pagecolor="#ffffff"
     bordercolor="#000000"
     borderopacity="0.25"
     inkscape:showpageshadow="2"
     inkscape:pageopacity="0.0"
     inkscape:pagecheckerboard="0"
     inkscape:deskcolor="#d1d1d1"
     inkscape:document-units="px"
     showgrid="false" /><defs
     id="defs2" /><g
     inkscape:label="Layer 1"
     inkscape:groupmode="layer"
     id="layer1"><g
       inkscape:label="Layer 1"
       id="layer1-1"
       transform="translate(8.6501034,-34.516845)"><path
         style="fill:#000000;stroke-width:1.33333"
         id="path179"
         d="" /><path
         style="fill:#000000;stroke-width:1.33333"
         d="m 421.35305,120.22655 c -1.42944,-2.99432 -4.14556,-5.73715 -7.13988,-7.21009 -4.83279,-2.37731 -4.83279,-2.37731 0.143,-4.33894 3.62286,-1.42826 5.41773,-3.1838 6.60118,-6.45656 0.89398,-2.472225 1.99374,-4.494958 2.44394,-4.494958 0.45018,0 1.7743,2.004283 2.94246,4.453958 1.24219,2.60489 3.83562,5.16294 6.24696,6.16176 2.26766,0.9393 4.11002,2.08502 4.09415,2.54604 -0.0159,0.46103 -1.96588,1.73824 -4.33333,2.83824 -2.53114,1.17604 -5.20814,3.92256 -6.49794,6.66667 -2.19345,4.66667 -2.19345,4.66667 -4.50054,-0.16612 z"
         id="path296" /><path
         style="fill:#000000;stroke-width:1.33333"
         d="m 382.27982,154.96464 c -4.13805,-9.3687 -4.22321,-9.45422 -13.53185,-13.59022 -5.15218,-2.28922 -9.36444,-4.4966 -9.3606,-4.90531 0.004,-0.40871 4.19932,-2.64295 9.32329,-4.96496 9.22139,-4.17884 9.36233,-4.32148 13.83407,-14 4.51776,-9.77816 4.51776,-9.77816 9.18857,0.28937 4.63751,9.99572 4.73372,10.09426 13.49228,13.8167 4.85181,2.06204 8.82147,4.21414 8.82147,4.78245 0,0.56831 -3.96966,2.72041 -8.82147,4.78245 -8.73353,3.7118 -8.86568,3.8462 -13.25748,13.48336 -2.4398,5.3538 -4.6808,9.73419 -4.98,9.73419 -0.2992,0 -2.41792,-4.24261 -4.70828,-9.42803 z"
         id="path294" /><path
         style="fill:#000000;stroke-width:1.33333"
         d="m 420.71371,170.69715 c -1.17604,-2.53113 -3.92256,-5.20813 -6.66666,-6.49793 -4.66667,-2.19346 -4.66667,-2.19346 0.16612,-4.50055 3.04204,-1.45221 5.68766,-4.09784 7.13988,-7.13988 2.30709,-4.83279 2.30709,-4.83279 4.50054,-0.16612 1.2898,2.74411 3.9668,5.49063 6.49794,6.66667 2.36745,1.1 4.31745,2.33886 4.33333,2.75305 0.0159,0.41417 -1.97543,1.70883 -4.42511,2.87699 -2.60489,1.24218 -5.16294,3.83561 -6.16176,6.24696 -0.93929,2.26765 -2.08501,4.11001 -2.54604,4.09414 -0.46102,-0.0159 -1.73824,-1.96588 -2.83824,-4.33333 z"
         id="path292" /><path
         style="fill:#000000;stroke-width:1.33333"
         d="m 357.58703,251.28769 c -1.86582,-2.06171 -2.20665,-5.8397 -2.20665,-24.46002 0,-19.64094 0.2636,-22.26025 2.43832,-24.22834 1.34108,-1.21367 3.34808,-2.20666 4.46001,-2.20666 1.11194,0 3.0147,1.09724 4.22835,2.43832 1.86583,2.06171 2.20665,5.8397 2.20665,24.46002 0,19.64094 -0.2636,22.26025 -2.43832,24.22834 -1.34108,1.21367 -3.34808,2.20666 -4.46001,2.20666 -1.11193,0 -3.01469,-1.09724 -4.22835,-2.43832 z"
         id="path290" /><path
         style="fill:#000000;stroke-width:1.33333"
         d="m 137.52302,255.61695 c -0.44513,-1.15997 -0.80932,-14.3109 -0.80932,-29.22428 0,-14.91337 0.36419,-28.0643 0.80932,-29.22428 0.51566,-1.34376 2.43388,-2.10905 5.28643,-2.10905 3.06176,0 4.91343,0.81529 5.85735,2.57901 0.81252,1.51822 1.38024,12.9995 1.38024,27.9132 0,13.9338 -0.58515,26.87326 -1.30034,28.75432 -1.04574,2.75052 -2.19253,3.42014 -5.85734,3.42014 -2.92542,0 -4.84679,-0.75514 -5.36634,-2.10906 z"
         id="path288" /><path
         style="fill:#000000;stroke-width:1.33333"
         d="m 193.47561,256.9641 c -1.76413,-1.76413 -2.09236,-6.24163 -2.07704,-28.33333 0.0107,-14.43095 0.38172,-27.59466 0.826,-29.25268 0.46063,-1.71904 2.22034,-3.36911 4.09464,-3.83954 2.17215,-0.54517 4.03992,-0.0729 5.50735,1.39256 1.89875,1.8962 2.28001,6.1921 2.63132,29.6489 0.36529,24.39058 0.15764,27.71118 -1.87332,29.95537 -1.25628,1.38817 -3.34831,2.52396 -4.64893,2.52396 -1.30063,0 -3.30764,-0.94285 -4.46002,-2.09524 z"
         id="path286" /><path
         style="fill:#000000;stroke-width:1.33333"
         d="m 276.38038,264.28587 c -2.13098,-1.24117 -2.33334,-4.47836 -2.33334,-37.32578 0,-35.96675 0,-35.96675 3.42063,-37.26727 2.26704,-0.86193 4.28521,-0.83781 5.98427,0.0715 1.40998,0.75461 2.9019,2.71984 3.31536,4.36717 0.41345,1.64735 0.57053,17.57925 0.34908,35.40424 -0.37631,30.28765 -0.57208,32.53284 -2.99084,34.29969 -1.4235,1.03983 -3.2235,1.87236 -4,1.85006 -0.77651,-0.0223 -2.46183,-0.65211 -3.74516,-1.39959 z"
         id="path284" /><path
         style="fill:#000000;stroke-width:1.33333"
         d="m 247.42728,267.14699 c -0.8604,-1.60768 -1.38024,-17.1392 -1.38024,-41.23809 0,-33.36684 0.28683,-38.94591 2.09524,-40.75432 1.15237,-1.15239 3.53127,-2.09524 5.28642,-2.09524 1.79042,0 3.79704,1.13205 4.57144,2.57901 0.85924,1.60552 1.38024,16.98891 1.38024,40.75432 0,23.76542 -0.521,39.1488 -1.38024,40.75432 -0.88243,1.64883 -2.78911,2.57902 -5.28643,2.57902 -2.49732,0 -4.404,-0.93019 -5.28643,-2.57902 z"
         id="path282" /><path
         style="fill:#000000;stroke-width:1.33333"
         d="m 166.96181,273.39267 c -2.04825,-1.50946 -2.26442,-5.93282 -2.29196,-46.89837 -0.0237,-35.28453 0.3443,-45.46947 1.6734,-46.31291 0.93708,-0.59467 2.93379,-1.09041 4.43712,-1.10164 1.50334,-0.0107 3.45334,0.69959 4.33334,1.57959 1.18024,1.18024 1.6,13.22328 1.6,45.90476 0,38.49928 -0.27455,44.57932 -2.09524,46.4 -1.15238,1.15239 -2.83771,2.09524 -3.74516,2.09524 -0.90746,0 -2.66763,-0.75 -3.9115,-1.66667 z"
         id="path280" /><path
         style="fill:#000000;stroke-width:1.33333"
         d="m 330.19348,275.90246 c -1.08237,-1.30417 -1.41368,-15.63083 -1.16325,-50.30159 0.35015,-48.47803 0.35015,-48.47803 4.15637,-49.81625 3.27563,-1.15167 4.15851,-0.90316 6.33334,1.78262 2.37382,2.93156 2.52453,5.92211 2.4847,49.30647 -0.0333,36.29123 -0.42186,46.6855 -1.81366,48.51896 -0.97419,1.28334 -3.28164,2.33334 -5.12767,2.33334 -1.84603,0 -4.03745,-0.8206 -4.86983,-1.82355 z"
         id="path278" /><path
         style="fill:#000000;stroke-width:1.33333"
         d="m 221.61772,282.72601 c -2.08763,-1.53119 -2.24381,-6.16439 -1.92151,-57 0.35083,-55.33334 0.35083,-55.33334 5.62406,-55.33334 4.48861,0 5.41117,0.49596 6.20042,3.33333 0.50996,1.83334 0.98702,26.14983 1.06011,54.03666 0.11507,43.87823 -0.14649,51.10223 -1.94269,53.66667 -1.14159,1.62984 -3.12691,2.96335 -4.41183,2.96335 -1.28493,0 -3.35877,-0.75 -4.60856,-1.66667 z"
         id="path276" /><path
         style="fill:#000000;stroke-width:1.33333"
         d="m 302.78931,284.096 c -1.79689,-2.56543 -2.0756,-10.32587 -2.0756,-57.79335 0,-53.74055 0.0548,-54.87961 2.75779,-57.32578 2.52024,-2.28077 3.06576,-2.32292 6.33333,-0.48917 3.57555,2.00658 3.57555,2.00658 3.92368,57.83444 0.31511,50.53115 0.13737,56.06075 -1.87332,58.28252 -1.2218,1.35008 -3.29443,2.45468 -4.60585,2.45468 -1.31143,0 -3.31844,-1.3335 -4.46003,-2.96334 z"
         id="path274" /><path
         style="fill:#000000;stroke-width:1.33333"
         d="m 235.38037,402.78787 c -1.83333,-0.78338 -5.19852,-2.23067 -7.47818,-3.21622 -2.27968,-0.98553 -6.60916,-4.1834 -9.62108,-7.10636 -3.01192,-2.92297 -7.05744,-7.81932 -8.99006,-10.88077 -3.51384,-5.56628 -3.51384,-5.56628 -13.71225,-4.71167 -5.60913,0.47004 -16.19843,1.4719 -23.53176,2.22634 -7.33333,0.75445 -19.48334,1.95412 -27,2.66594 -7.51667,0.71182 -20.11667,1.9075 -28,2.65706 -7.88334,0.74957 -20.929848,1.96506 -28.992228,2.7011 -8.06239,0.73604 -16.1961,1.00063 -18.07491,0.58798 -1.87881,-0.41266 -4.43231,-2.47072 -5.67444,-4.5735 -1.24213,-2.10276 -2.25843,-6.44712 -2.25843,-9.65415 0,-3.28938 0.98335,-7.26786 2.25606,-9.1276 1.24082,-1.81317 2.89082,-3.72498 3.66666,-4.24848 0.77584,-0.52348 5.49907,-1.3548 10.49608,-1.84736 4.997,-0.49257 9.8932,-1.7033 10.88043,-2.69054 0.98723,-0.98723 2.7008,-4.35592 3.80793,-7.48596 1.10714,-3.13006 2.74498,-9.45067 3.63966,-14.0458 1.31946,-6.7769 2.158,-8.45266 4.439928,-8.87294 1.5473,-0.28497 7.01326,-1.23044 12.14659,-2.10104 5.13333,-0.8706 16.83333,-3.10401 26,-4.96313 9.16667,-1.85912 19.06667,-3.8316 22,-4.38328 2.93334,-0.55168 13.11792,-2.94363 22.63243,-5.31544 14.36476,-3.58089 19.11423,-4.21488 28,-3.73755 8.62089,0.46311 12.49333,1.43342 19.92225,4.99192 5.74104,2.74999 11.51719,6.85723 15.30436,10.88243 6.08302,6.46535 6.08302,6.46535 12.23862,0.012 3.62231,-3.79776 9.93073,-8.3134 15.32868,-10.97243 7.84041,-3.86217 10.82445,-4.58217 20.54004,-4.95596 9.21773,-0.35462 14.39219,0.32218 27.36696,3.5795 8.8,2.20924 20.2,4.96249 25.33334,6.11833 5.13333,1.15585 12.03333,2.66064 15.33333,3.34399 3.3,0.68334 13.2,2.50385 22,4.04556 8.8,1.54172 17.43164,3.22616 19.18143,3.7432 2.72576,0.80542 3.63505,2.74341 6.34848,13.53054 1.74186,6.92476 4.02594,13.90135 5.07573,15.50352 1.44699,2.20838 3.78173,3.13295 9.65153,3.82208 4.25856,0.49996 8.76304,1.20436 10.00996,1.56532 1.24692,0.36096 3.49692,2.64614 5,5.07816 1.57024,2.54071 2.73287,6.70567 2.73287,9.79016 0,4.12446 -0.92691,6.36054 -4.00047,9.65081 -4.00048,4.28252 -4.00048,4.28252 -16.33333,3.45078 -6.78308,-0.45744 -17.73287,-1.4057 -24.33287,-2.10724 -6.6,-0.70153 -18.3,-1.92185 -26,-2.71182 -7.7,-0.78998 -19.4,-1.99735 -26,-2.68304 -6.6,-0.6857 -18.17151,-1.85478 -25.71445,-2.59795 -7.54296,-0.74363 -15.65651,-1.35168 -18.03014,-1.35168 -3.60342,0 -4.7508,0.8082 -6.95221,4.89712 -1.45009,2.69341 -4.87296,7.15629 -7.60637,9.91749 -2.73342,2.76122 -8.8192,6.85751 -13.52396,9.10288 -7.89884,3.76978 -9.61195,4.0756 -22.3635,3.99227 -7.59516,-0.0496 -15.30937,-0.73119 -17.14271,-1.51457 z m 31.97589,-30.38289 c 2.86162,-1.45989 6.67202,-4.60989 8.46753,-7 1.79552,-2.3901 3.66753,-6.24822 4.16004,-8.57361 0.49252,-2.3254 2.32957,-5.7754 4.08235,-7.66667 2.49262,-2.68958 4.46164,-3.43869 9.03853,-3.43869 3.21841,0 10.59705,0.55859 16.397,1.24131 5.79993,0.68272 18.34533,1.93232 27.87867,2.77688 9.53333,0.84457 22.13333,2.05178 28,2.6827 5.86667,0.63092 15.95781,1.55571 22.42476,2.05511 11.75811,0.90797 11.75811,0.90797 10.84477,-4.25735 -0.50232,-2.84092 -1.59346,-5.88405 -2.42476,-6.76249 -0.83129,-0.87844 -13.51144,-4.07083 -28.1781,-7.0942 -14.66667,-3.02336 -28.76667,-5.97808 -31.33334,-6.56603 -2.56667,-0.58796 -11.56667,-2.70298 -20,-4.70006 -11.59951,-2.74687 -17.20919,-3.4417 -23.03669,-2.8534 -4.23686,0.4277 -10.28475,1.9536 -13.43976,3.39088 -3.15503,1.43728 -8.16416,5.04098 -11.13142,8.00825 -2.96726,2.96725 -6.02398,7.04877 -6.7927,9.07004 -0.76874,2.02127 -1.75896,5.86473 -2.20051,8.54105 -0.44155,2.67631 -1.65392,5.57238 -2.69415,6.43568 -1.04022,0.86332 -3.2543,1.3736 -4.92016,1.13398 -1.66585,-0.23963 -3.77613,-1.93568 -4.68949,-3.76902 -0.91338,-1.83333 -1.99802,-5.51614 -2.41031,-8.18404 -0.41229,-2.66789 -2.76171,-7.48584 -5.22089,-10.70654 -2.4592,-3.22071 -7.09462,-7.15819 -10.30094,-8.74994 -3.2063,-1.59176 -8.22965,-3.52046 -11.16298,-4.28602 -2.93334,-0.76555 -7.64883,-1.39527 -10.47887,-1.39935 -2.83004,-0.004 -12.73004,1.809 -22,4.02911 -9.26996,2.22009 -18.95447,4.63296 -21.52113,5.36192 -2.56667,0.72896 -15.46667,3.43764 -28.66667,6.0193 -13.2,2.58166 -24.69116,5.41879 -25.53591,6.30474 -0.84475,0.88596 -1.96275,4.2511 -2.48443,7.47812 -0.83869,5.18796 -0.68538,5.76633 1.32414,4.9952 1.24996,-0.47966 8.96794,-1.50632 17.15109,-2.28148 8.18315,-0.77518 20.87844,-1.96074 28.21177,-2.63459 7.33334,-0.67385 19.33334,-1.82712 26.66667,-2.56284 7.33334,-0.73571 18.00926,-1.73549 23.72428,-2.22176 7.38078,-0.62799 11.31443,-0.38988 13.57874,0.82195 1.75329,0.93833 3.8647,3.57584 4.69204,5.86114 0.82733,2.2853 2.68837,6.5884 4.13565,9.56247 1.44729,2.97407 4.55995,6.57407 6.91703,8 2.35708,1.42593 5.4856,2.9828 6.95226,3.45971 1.46667,0.4769 6.74058,0.9269 11.71979,1 6.60954,0.0971 10.45748,-0.58355 14.2561,-2.52146 z"
         id="path197" /></g></g></svg>
